<svg xmlns="http://www.w3.org/2000/svg" fill="none" aria-hidden="true" class="MuiSvgIcon-root MuiSvgIcon-fontSizeMedium css-bbh01c" viewBox="0 0 16 16"><path fill="currentColor" d="M5.714 1.6c.757 0 1.372.597 1.372 1.333v4.445c0 .736-.615 1.333-1.372 1.333H2.971c-.757 0-1.371-.597-1.371-1.333V2.933c0-.736.614-1.333 1.371-1.333h2.743Zm0 8.889c.757 0 1.372.597 1.372 1.333v.89c0 .735-.615 1.332-1.372 1.332H2.971c-.757 0-1.371-.597-1.371-1.333v-.889c0-.736.614-1.333 1.371-1.333h2.743Z" class="secondary"/><path fill="currentColor" d="M13.029 1.6c.757 0 1.371.597 1.371 1.333v.89c0 .735-.614 1.333-1.371 1.333h-2.743c-.757 0-1.372-.598-1.372-1.334v-.889c0-.736.615-1.333 1.372-1.333h2.743Zm0 5.333c.757 0 1.371.598 1.371 1.334v4.444c0 .736-.614 1.333-1.371 1.333h-2.743c-.757 0-1.372-.597-1.372-1.333V8.267c0-.736.615-1.334 1.372-1.334h2.743Z"/></svg>