<svg xmlns="http://www.w3.org/2000/svg" fill="none" aria-hidden="true" class="MuiSvgIcon-root MuiSvgIcon-fontSizeMedium css-bbh01c" viewBox="0 0 16 16"><path fill="currentColor" d="M9.778 2.667a1.778 1.778 0 1 0-3.556 0c-.982 0-1.778.796-1.778 1.777v.445c0 .244.2.444.445.444h6.222c.244 0 .444-.2.444-.444v-.445c0-.981-.797-1.777-1.777-1.777ZM8 3.333a.666.666 0 1 1-.002-1.332A.666.666 0 0 1 8 3.333Zm-2.667 7.111a.667.667 0 1 0 0 1.334.667.667 0 0 0 0-1.334Zm0-2.666a.667.667 0 1 0 0 1.333.667.667 0 0 0 0-1.333Z" class="secondary"/><path fill="currentColor" d="M12 2.667H9.778c.982 0 1.778.796 1.778 1.777v.445c0 .244-.2.444-.445.444H4.89a.445.445 0 0 1-.445-.444v-.445c0-.981.796-1.777 1.778-1.777H4c-.736 0-1.333.597-1.333 1.333v9.778c0 .736.597 1.333 1.333 1.333h8c.736 0 1.333-.597 1.333-1.333V4c0-.736-.597-1.333-1.333-1.333Zm-6.667 9.11a.667.667 0 1 1 0-1.333.667.667 0 0 1 0 1.334Zm0-2.666a.667.667 0 1 1 0-1.334.667.667 0 0 1 0 1.334Zm5.778 2.445H7.556a.446.446 0 0 1-.445-.445c0-.244.2-.444.445-.444h3.555c.245 0 .445.2.445.444 0 .245-.2.445-.445.445Zm0-2.667H7.556a.446.446 0 0 1-.445-.445c0-.244.2-.444.445-.444h3.555c.245 0 .445.2.445.444 0 .245-.2.445-.445.445Z"/></svg>