<svg xmlns="http://www.w3.org/2000/svg" fill="none" aria-hidden="true" class="MuiSvgIcon-root MuiSvgIcon-fontSizeMedium css-bbh01c w-5 h-5 text-[#fff]" viewBox="0 0 16 16"><path fill="currentColor" d="M8 9.005c0-1.947 1.593-3.526 3.556-3.526s3.555 1.58 3.555 3.526c0 1.946-1.593 3.526-3.555 3.526C9.593 12.53 8 10.95 8 9.005Zm5.217-.507a.387.387 0 0 0 0-.553.394.394 0 0 0-.558 0L11.161 9.43l-.71-.703a.394.394 0 0 0-.557 0 .386.386 0 0 0 0 .554l.988.979a.394.394 0 0 0 .558 0l1.777-1.763Z" class="secondary"/><path fill="currentColor" d="M2.141 1.427c.201-.398.612-.65 1.06-.65h2.824v3.135H.889L2.14 1.427Zm4.674 2.485V.778h2.822c.45 0 .86.251 1.062.65l1.252 2.484H6.815Zm4.346.8C8.946 4.912 7.21 6.758 7.21 9.006c0 1.04.373 1.998.992 2.742H2.47c-.873 0-1.58-.702-1.58-1.567V4.695H11.16v.018Z"/></svg>